<?xml version="1.0"?><svg width="24" height="24" xmlns="http://www.w3.org/2000/svg" xmlns:svg="http://www.w3.org/2000/svg" enable-background="new 0 0 24 24" version="1.1" xml:space="preserve"><style type="text/css">.st0{opacity:0.2;fill:none;stroke:#000000;stroke-width:5.000000e-02;stroke-miterlimit:10;}</style><g class="layer"><title>Layer 1</title><g id="grid_system"/><g id="_icons"><path d="m5.3,18.7c0.2,0.2 0.4,0.3 0.7,0.3s0.5,-0.1 0.7,-0.3l5.3,-5.3l5.3,5.3c0.2,0.2 0.5,0.3 0.7,0.3s0.5,-0.1 0.7,-0.3c0.4,-0.4 0.4,-1 0,-1.4l-5.3,-5.3l5.3,-5.3c0.4,-0.4 0.4,-1 0,-1.4s-1,-0.4 -1.4,0l-5.3,5.3l-5.3,-5.3c-0.4,-0.4 -1,-0.4 -1.4,0s-0.4,1 0,1.4l5.3,5.3l-5.3,5.3c-0.4,0.4 -0.4,1 0,1.4z" id="svg_1" transform="rotate(-45 12 12)"/></g></g></svg>